<svg data-v-423bf9ae="" xmlns="http://www.w3.org/2000/svg" viewBox="0 0 725.6816505899235 163" class="iconAbove"><!----><!----><!----><g data-v-423bf9ae="" id="2c5d5faf-a5c8-4e05-8c6c-1a0cd354be93" fill="#38151C" transform="matrix(4.8979591836734695,0,0,4.8979591836734695,-4.114271905957423,100.25714528925565)"><path d="M7.45 1.05L0.84 1.05L0.84 12.60L7.45 12.60L7.45 10.29L3.47 10.29L3.47 7.97L7.28 7.97L7.28 5.66L3.47 5.66L3.47 3.36L7.45 3.36ZM14.91 1.05L12.47 1.05L7.81 12.60L10.64 12.60L11.49 10.29L15.89 10.29L16.74 12.60L19.57 12.60ZM14.99 7.98L12.39 7.98L13.68 4.62L13.71 4.62ZM22.65 1.05L20.02 1.05L20.02 12.60L22.65 12.60ZM24.33 1.05L24.33 12.60L26.96 12.60L26.96 8.32L28.55 8.32C30.80 8.32 32.49 6.99 32.49 4.61C32.49 2.21 30.80 1.05 28.55 1.05ZM26.96 6.22L26.96 3.15L27.71 3.15C28.74 3.15 29.72 3.50 29.72 4.69C29.72 5.87 28.74 6.22 27.71 6.22ZM37.48 1.05L37.48 12.60L40.11 12.60L40.11 8.04L43.64 12.60L46.98 12.60L43.01 7.83C44.42 7.38 45.37 6.22 45.37 4.48C45.37 2.21 43.75 1.05 41.61 1.05ZM40.11 6.17L40.11 3.15L40.42 3.15C41.41 3.15 42.60 3.22 42.60 4.66C42.60 6.10 41.41 6.17 40.42 6.17ZM51.76 0.84C49.90 0.84 47.99 2.21 47.99 4.37C47.99 5.57 48.80 6.65 50.19 7.34C51.56 8.02 52.79 8.40 52.79 9.24C52.79 10.32 51.70 10.37 51.13 10.37C49.84 10.37 48.30 9.07 48.30 9.07L46.98 11.28C46.98 11.28 48.62 12.81 51.32 12.81C53.58 12.81 55.68 11.84 55.68 9.09C55.68 7.57 54.26 6.48 52.98 5.94C51.66 5.38 50.57 4.91 50.57 4.27C50.57 3.64 51.04 3.23 51.94 3.23C53.13 3.23 54.28 4.03 54.28 4.03L55.34 1.93C55.34 1.93 53.86 0.84 51.76 0.84ZM56.39 9.02C56.39 11.23 58.13 12.81 60.72 12.81C63.20 12.81 65.00 11.23 65.00 9.02C65.00 6.78 63.10 5.21 60.72 5.21C58.30 5.21 56.39 6.78 56.39 9.02ZM59.02 9.02C59.02 8.02 59.77 7.32 60.70 7.32C61.63 7.32 62.37 8.02 62.37 9.02C62.37 10.00 61.67 10.70 60.70 10.70C59.70 10.70 59.02 10.00 59.02 9.02ZM69.99 7.24C70.73 7.24 71.19 7.57 71.19 7.57L72.03 5.88C72.03 5.88 71.22 5.21 69.62 5.21C67.54 5.21 65.65 6.92 65.65 9.03C65.65 11.13 67.55 12.81 69.62 12.81C71.22 12.81 72.03 12.17 72.03 12.17L71.19 10.44C71.19 10.44 70.73 10.78 69.99 10.78C69.05 10.78 68.28 10.00 68.28 9.00C68.28 8.02 69.05 7.24 69.99 7.24ZM81.24 5.42L78.02 5.42L75.52 7.92L75.52 0.56L73.04 0.56L73.04 12.60L75.52 12.60L75.52 9.73L78.39 12.60L81.58 12.60L77.83 8.85ZM89.35 9.35C89.36 9.27 89.36 9.11 89.36 9.02C89.36 6.50 87.70 5.21 85.51 5.21C83.34 5.21 81.56 6.92 81.56 9.02C81.56 11.10 83.34 12.81 85.51 12.81C87.11 12.81 88.42 12.29 89.24 10.93L87.44 10.04C86.84 10.68 86.49 10.84 85.69 10.84C85.06 10.84 84.14 10.46 84.14 9.35ZM84.21 7.98C84.25 7.32 84.73 6.82 85.58 6.82C86.31 6.82 86.83 7.22 86.94 7.98ZM90.87 5.42L89.84 5.42L89.84 7.31L90.87 7.31L90.87 10.07C90.87 11.34 91.35 12.81 93.32 12.81C94.35 12.81 95.14 12.36 95.14 12.36L94.53 10.36C94.53 10.36 94.23 10.58 93.91 10.58C93.52 10.58 93.35 10.26 93.35 9.59L93.35 7.31L94.86 7.31L94.86 5.42L93.35 5.42L93.35 2.74L90.87 2.74ZM99.81 1.05L99.81 12.60L104.19 12.60C106.58 12.60 107.97 11.28 107.97 9.38C107.97 7.52 106.95 6.72 105.50 6.47C106.48 5.96 106.95 5.05 106.95 3.99C106.95 1.79 105.38 1.05 103.39 1.05ZM102.44 5.57L102.44 3.08L102.65 3.08C103.80 3.08 104.40 3.43 104.40 4.26C104.40 5.22 103.78 5.57 102.65 5.57ZM102.44 10.57L102.44 7.84L103.26 7.84C104.51 7.84 105.20 8.22 105.20 9.28C105.20 10.19 104.51 10.57 103.26 10.57ZM109.13 12.60L111.61 12.60L111.61 8.82C111.61 8.64 111.79 7.36 113.08 7.36C113.90 7.36 114.37 7.76 114.37 7.76L115.40 5.66C115.40 5.66 114.76 5.21 113.83 5.21C112.42 5.21 111.64 6.45 111.64 6.45L111.61 6.45L111.61 5.42L109.13 5.42ZM115.50 9.02C115.50 11.23 117.24 12.81 119.83 12.81C122.30 12.81 124.11 11.23 124.11 9.02C124.11 6.78 122.21 5.21 119.83 5.21C117.40 5.21 115.50 6.78 115.50 9.02ZM118.13 9.02C118.13 8.02 118.87 7.32 119.81 7.32C120.74 7.32 121.48 8.02 121.48 9.02C121.48 10.00 120.78 10.70 119.81 10.70C118.80 10.70 118.13 10.00 118.13 9.02ZM133.48 5.42L130.26 5.42L127.75 7.92L127.75 0.56L125.27 0.56L125.27 12.60L127.75 12.60L127.75 9.73L130.62 12.60L133.81 12.60L130.06 8.85ZM141.58 9.35C141.60 9.27 141.60 9.11 141.60 9.02C141.60 6.50 139.93 5.21 137.75 5.21C135.58 5.21 133.80 6.92 133.80 9.02C133.80 11.10 135.58 12.81 137.75 12.81C139.34 12.81 140.66 12.29 141.47 10.93L139.68 10.04C139.08 10.68 138.73 10.84 137.93 10.84C137.30 10.84 136.37 10.46 136.37 9.35ZM136.44 7.98C136.49 7.32 136.96 6.82 137.82 6.82C138.54 6.82 139.06 7.22 139.17 7.98ZM142.73 12.60L145.21 12.60L145.21 8.82C145.21 8.64 145.39 7.36 146.68 7.36C147.50 7.36 147.97 7.76 147.97 7.76L149.00 5.66C149.00 5.66 148.36 5.21 147.43 5.21C146.02 5.21 145.24 6.45 145.24 6.45L145.21 6.45L145.21 5.42L142.73 5.42Z"></path></g><defs data-v-423bf9ae=""><linearGradient data-v-423bf9ae="" gradientTransform="rotate(25)" id="ec2d1ceb-e2d4-4b1c-95e3-41bf2c31d295" x1="0%" y1="0%" x2="100%" y2="0%"><stop data-v-423bf9ae="" offset="0%" style="stop-color: rgb(224, 48, 47); stop-opacity: 1;"></stop><stop data-v-423bf9ae="" offset="100%" style="stop-color: rgb(50, 129, 221); stop-opacity: 1;"></stop></linearGradient></defs><g data-v-423bf9ae="" id="b3314939-0916-4ebe-922a-166a6a70f057" transform="matrix(2.8125,0,0,2.8125,318,0)" stroke="none" fill="url(#ec2d1ceb-e2d4-4b1c-95e3-41bf2c31d295)"><path d="M9.382 8.675h13.943v13.943L32 31.293V0H.707zM22.618 23.325H8.675V9.382L0 .707V32h31.293z"></path></g><!----></svg>